HIERARCHY
ROOT SpineBase
{
  OFFSET 0.000000 0.000000 0.000000
  CHANNELS 6 Xposition Yposition Zposition Zrotation Xrotation Yrotation
  JOINT SpineMid
  {
    OFFSET 0.000000 32.714102 -0.000000
    CHANNELS 3 Zrotation Xrotation Yrotation
    JOINT SpineShoulder
    {
      OFFSET -0.100431 24.478220 -0.809352
      CHANNELS 3 Zrotation Xrotation Yrotation
      JOINT Neck
      {
        OFFSET -0.082079 8.133727 -0.598543
        CHANNELS 3 Zrotation Xrotation Yrotation
        JOINT Head
        {
          OFFSET 2.171693 11.739350 3.897606
          CHANNELS 3 Zrotation Xrotation Yrotation
          End Site
          {
            OFFSET 0 0 0
          }
        }
      }
      JOINT ShoulderLeft
      {
        OFFSET -7.452100 -4.546356 -1.623621
        CHANNELS 3 Zrotation Xrotation Yrotation
        JOINT ElbowLeft
        {
          OFFSET -10.097748 -17.298746 16.616923
          CHANNELS 3 Zrotation Xrotation Yrotation
          JOINT WristLeft
          {
            OFFSET 1.016674 -22.899331 2.317755
            CHANNELS 3 Zrotation Xrotation Yrotation
            JOINT HandLeft
            {
              OFFSET 1.560781 -5.284234 6.988795
              CHANNELS 3 Zrotation Xrotation Yrotation
              JOINT HandTipLeft
              {
                OFFSET -0.409340 -3.917922 -0.311767
                CHANNELS 3 Zrotation Xrotation Yrotation
                End Site
                {
                  OFFSET 0 0 0
                }
              }
              JOINT ThumbLeft
              {
                OFFSET -0.445533 2.966309 -1.445083
                CHANNELS 3 Zrotation Xrotation Yrotation
                End Site
                {
                  OFFSET 0 0 0
                }
              }
            }
          }
        }
      }
      JOINT ShoulderRight
      {
        OFFSET 8.872634 -6.363260 -12.642823
        CHANNELS 3 Zrotation Xrotation Yrotation
        JOINT ElbowRight
        {
          OFFSET 4.940670 -27.400757 -2.005152
          CHANNELS 3 Zrotation Xrotation Yrotation
          JOINT WristRight
          {
            OFFSET 3.727535 -20.275534 4.032191
            CHANNELS 3 Zrotation Xrotation Yrotation
            JOINT HandRight
            {
              OFFSET -0.464826 -4.436946 2.344971
              CHANNELS 3 Zrotation Xrotation Yrotation
              JOINT HandTipRight
              {
                OFFSET 0.210390 -7.062123 0.259345
                CHANNELS 3 Zrotation Xrotation Yrotation
                End Site
                {
                  OFFSET 0 0 0
                }
              }
              JOINT ThumbRight
              {
                OFFSET -3.433921 0.949062 -1.448895
                CHANNELS 3 Zrotation Xrotation Yrotation
                End Site
                {
                  OFFSET 0 0 0
                }
              }
            }
          }
        }
      }
    }
  }
  JOINT HipLeft
  {
    OFFSET -5.971727 0.922296 -0.113979
    CHANNELS 3 Zrotation Xrotation Yrotation
    JOINT KneeLeft
    {
      OFFSET -5.986533 -32.780967 0.216136
      CHANNELS 3 Zrotation Xrotation Yrotation
      JOINT AnkleLeft
      {
        OFFSET -2.024424 -32.290761 2.555039
        CHANNELS 3 Zrotation Xrotation Yrotation
        JOINT FootLeft
        {
          OFFSET 0.765095 9.141197 -3.486084
          CHANNELS 3 Zrotation Xrotation Yrotation
          End Site
          {
            OFFSET 0 0 0
          }
        }
      }
    }
  }
  JOINT HipRight
  {
    OFFSET 4.793572 2.360841 -6.421337
    CHANNELS 3 Zrotation Xrotation Yrotation
    JOINT KneeRight
    {
      OFFSET -3.201571 -24.919286 -5.475049
      CHANNELS 3 Zrotation Xrotation Yrotation
      JOINT AnkleRight
      {
        OFFSET -2.118637 -31.402464 -2.406697
        CHANNELS 3 Zrotation Xrotation Yrotation
        JOINT FootRight
        {
          OFFSET 0.268627 -5.751485 1.667604
          CHANNELS 3 Zrotation Xrotation Yrotation
          End Site
          {
            OFFSET 0 0 0
          }
        }
      }
    }
  }
}
MOTION
Frames: 16
Frame Time: 0.033333
43.207853 64.657084 241.628425 -0.316648 0.052130 31.997495 0.240919 -0.211995 -31.996905 -0.000000 0.000000 0.000000 0.235284 -1.471126 0.197985 0.000000 0.000000 0.000000 14.851247 11.797262 7.135941 -16.839823 -11.744239 -10.226315 -11.759132 43.735867 5.382771 10.938510 -41.542839 3.812457 0.000000 0.000000 0.000000 0.000000 0.000000 0.000000 1.495384 -0.529333 -0.197576 -3.589410 4.658987 0.659733 1.697445 -6.863685 -0.208588 -5.399410 2.721237 -0.051156 0.000000 0.000000 0.000000 0.000000 0.000000 0.000000 0.240919 -0.211995 -31.996905 0.449590 2.210745 -0.111915 1.199806 0.247793 0.550612 0.000000 0.000000 0.000000 1.093616 0.217656 -32.210465 -0.492485 -0.818024 0.210002 -12.832738 32.179602 1.673024 0.000000 0.000000 0.000000
43.243629 64.711291 241.650963 -0.286681 0.113207 32.344528 0.181636 -0.249018 -32.343850 -0.000000 0.000000 0.000000 0.187059 -1.651000 0.247291 0.000000 0.000000 0.000000 14.283271 10.980847 7.159042 -16.546171 -11.466755 -10.054851 -11.557974 43.795614 5.142315 11.282190 -41.073990 4.281400 0.000000 0.000000 0.000000 0.000000 0.000000 0.000000 1.716561 -0.247503 -0.166122 -3.899239 4.096792 0.538334 2.186840 -5.504796 -0.014663 -6.213243 -0.308389 -0.405375 0.000000 0.000000 0.000000 0.000000 0.000000 0.000000 0.367420 0.603738 -32.496058 0.758286 1.077573 0.070342 1.184202 0.577659 0.519191 0.000000 0.000000 0.000000 0.999731 0.161185 -32.547426 -0.468952 -0.785900 0.200988 -9.066654 29.237603 1.228933 0.000000 0.000000 0.000000
43.294784 64.781426 241.667977 -0.232057 0.197454 32.777714 0.088212 -0.291645 -32.777090 -0.000000 0.000000 0.000000 0.083422 -2.049556 0.355144 0.000000 0.000000 0.000000 14.363568 11.119588 7.138129 -16.555610 -11.347809 -10.052698 -11.597577 43.765743 5.189294 11.255277 -41.309016 4.208269 0.000000 0.000000 0.000000 0.000000 0.000000 0.000000 1.765538 -0.150678 -0.153645 -4.000399 3.727872 0.454141 2.454923 -4.634186 0.104424 -4.908928 -2.549685 -0.575757 0.000000 0.000000 0.000000 0.000000 0.000000 0.000000 0.214158 0.687351 -32.942994 0.861536 1.033051 0.082467 1.200654 0.545292 0.522171 0.000000 0.000000 0.000000 0.088212 -0.291645 -32.777090 -0.000000 0.000000 0.000000 -6.006032 17.956105 0.055009 0.000000 0.000000 0.000000
43.347953 64.857762 241.687674 -0.173432 0.282139 33.101142 -0.008794 -0.331064 -33.100740 -0.000000 0.000000 0.000000 -0.116394 -2.445096 0.491944 0.000000 0.000000 0.000000 14.328620 11.817267 6.548302 -16.361254 -11.808713 -9.610230 -11.673990 43.726531 5.282257 11.677923 -42.415517 4.443828 0.000000 0.000000 0.000000 0.000000 0.000000 0.000000 1.406256 -0.298565 -0.152775 -3.399373 3.740179 0.473479 1.230497 -4.901235 -0.470144 -2.683156 -2.119954 -0.028130 0.000000 0.000000 0.000000 0.000000 0.000000 0.000000 0.071234 0.785259 -33.283255 0.946289 1.171102 0.083637 1.233983 0.303192 0.546899 0.000000 0.000000 0.000000 -0.008794 -0.331064 -33.100740 -0.000000 0.000000 0.000000 -3.521299 2.861882 -0.806602 0.000000 0.000000 0.000000
43.403418 64.934462 241.714380 -0.110518 0.369137 33.184303 -0.109547 -0.369426 -33.184300 -0.000000 0.000000 0.000000 -0.344067 -2.869244 0.641488 0.000000 0.000000 0.000000 14.041255 11.921956 6.152278 -15.890800 -11.812661 -9.159135 -11.724102 43.683966 5.343007 11.649779 -42.685156 4.356691 0.000000 0.000000 0.000000 0.000000 0.000000 0.000000 1.050164 -0.681620 -0.193275 -3.296297 3.985666 0.465538 0.848682 -4.813858 -0.761347 -1.106257 -2.158167 0.328293 0.000000 0.000000 0.000000 0.000000 0.000000 0.000000 -0.082733 0.898726 -33.385162 1.020639 1.374081 0.080539 1.291541 -0.028396 0.583228 0.000000 0.000000 0.000000 -0.109547 -0.369426 -33.184300 -0.000000 0.000000 0.000000 5.500189 -2.363287 1.585965 0.000000 0.000000 0.000000
43.427143 65.001369 241.754341 -0.056412 0.411964 33.004244 -0.177090 -0.376213 -33.004622 -0.000000 0.000000 0.000000 -0.418981 -3.370806 0.757409 0.000000 0.000000 0.000000 13.652336 12.312714 5.418724 -15.360419 -12.368484 -8.457239 -11.741578 43.659447 5.363990 11.587928 -42.711419 4.285430 0.000000 0.000000 0.000000 0.000000 0.000000 0.000000 0.853806 -1.230318 -0.275009 -3.463653 4.936057 0.607863 0.101316 -7.114387 -1.244988 -0.632976 -0.233189 0.712827 0.000000 0.000000 0.000000 0.000000 0.000000 0.000000 -0.136856 0.941326 -33.214909 0.651791 1.529720 0.048153 2.028503 -0.242250 0.787762 0.000000 0.000000 0.000000 -0.177090 -0.376213 -33.004622 -0.000000 0.000000 0.000000 1.403239 -8.193410 0.121465 0.000000 0.000000 0.000000
43.470034 65.054016 241.816728 0.042000 0.311440 32.559371 -0.203009 -0.239888 -32.559910 -0.000000 0.000000 0.000000 -0.510202 -3.719441 0.849582 0.000000 0.000000 0.000000 13.960228 14.314875 4.101728 -15.398830 -14.015460 -7.656406 -11.862676 43.571273 5.514284 10.924143 -42.548283 3.614491 0.000000 0.000000 0.000000 0.000000 0.000000 0.000000 0.630353 -2.043638 -0.403541 -3.243576 5.864283 0.806385 -0.974136 -7.924336 -1.860595 1.687563 2.602042 1.251669 0.000000 0.000000 0.000000 0.000000 0.000000 0.000000 -0.184808 1.044381 -32.763758 0.575310 1.855200 0.018394 0.381868 2.908047 -0.188704 0.000000 0.000000 0.000000 0.280647 0.446851 -32.676769 -0.036351 -0.839171 0.115719 -1.408861 0.455075 -0.382319 0.000000 0.000000 0.000000
43.506714 65.087956 241.880081 0.196084 -0.001065 31.938920 -0.165836 0.104635 -31.938766 0.688735 -0.913375 0.046925 -1.207538 -2.790404 0.821341 0.000000 0.000000 0.000000 13.901866 17.910012 2.035706 -15.789036 -15.858756 -6.709725 -11.685702 43.275830 5.767584 10.648677 -43.492440 3.139529 0.000000 0.000000 0.000000 0.000000 0.000000 0.000000 0.467799 -1.693247 -0.582766 -4.532570 6.460462 0.910498 0.577086 -7.912969 -1.215706 0.358909 3.202060 0.926495 0.000000 0.000000 0.000000 0.000000 0.000000 0.000000 -0.116527 1.156828 -32.110404 0.798555 2.320438 -0.008612 0.078685 1.855736 -0.111483 0.000000 0.000000 0.000000 0.452591 1.023251 -32.095249 -0.035872 -1.106785 0.150049 -10.775741 4.905663 -2.482766 0.000000 0.000000 0.000000
43.514404 65.113616 241.879377 0.414754 -0.528350 30.786761 -0.039211 -0.826389 -30.762870 0.222033 -0.417622 0.038426 -1.371499 -1.870201 0.734144 0.000000 0.000000 0.000000 14.459319 21.459889 -0.009786 -15.602976 -18.177271 -5.606348 -12.260451 43.273141 6.005310 10.367060 -44.409015 2.665354 0.000000 0.000000 0.000000 0.000000 0.000000 0.000000 1.086765 -1.504064 -0.773962 -6.275766 5.541298 0.737474 2.522139 -4.462889 -0.259778 -3.123452 0.877824 0.499854 0.000000 0.000000 0.000000 0.000000 0.000000 0.000000 -0.085887 0.666178 -30.784349 0.650814 3.543779 -0.191416 1.173599 -2.889898 0.892725 0.000000 0.000000 0.000000 0.660091 1.691427 -30.986934 0.040227 -0.004901 0.090956 -23.881066 6.246993 -5.647852 0.000000 0.000000 0.000000
43.451904 65.118593 241.829769 0.611163 -1.154240 29.108240 -0.011177 -0.946291 -29.075339 0.224402 -0.434557 0.044158 -1.160548 -1.507785 0.649405 0.000000 0.000000 0.000000 15.121048 24.461309 -1.740686 -15.926797 -20.126658 -4.944568 -12.375258 43.183068 6.146207 10.192927 -44.946337 2.378587 0.000000 0.000000 0.000000 0.000000 0.000000 0.000000 2.289272 -1.509236 -1.038963 -8.718458 3.655522 0.389960 3.955638 -0.430292 0.498208 -5.888152 0.934236 0.366990 0.000000 0.000000 0.000000 0.000000 0.000000 0.000000 0.027466 1.305751 -29.102396 0.809969 3.747741 -0.198053 4.301724 -11.873559 3.371809 0.000000 0.000000 0.000000 1.031472 2.313483 -29.394271 -0.332953 0.093972 0.153336 -41.535311 7.631496 -10.118670 0.000000 0.000000 0.000000
43.290711 65.129101 241.618057 0.725267 -1.783645 27.574822 0.025207 -0.966191 -27.536588 0.212746 -0.413065 0.044243 -0.577848 -1.772550 0.580253 0.000000 0.000000 0.000000 16.103908 27.030088 -3.110763 -16.628265 -22.073619 -4.751361 -12.414862 43.154357 6.194192 10.130607 -45.120712 2.279287 0.000000 0.000000 0.000000 0.000000 0.000000 0.000000 3.917545 -1.776369 -1.346540 -10.993705 1.265373 0.035823 5.764419 4.942709 1.525962 -8.427491 -0.991677 -0.448246 0.000000 0.000000 0.000000 0.000000 0.000000 0.000000 0.582373 0.861364 -27.433460 -0.094854 4.821951 -0.371462 11.159661 -26.064236 9.042379 0.000000 0.000000 0.000000 1.522926 2.502787 -27.965449 -1.123072 0.738455 0.225898 -53.951965 4.173739 -15.961976 0.000000 0.000000 0.000000
43.025688 65.147898 241.228627 0.725913 -2.263177 26.277143 0.104684 -0.856522 -26.239430 0.223177 -0.333052 0.041965 0.217082 -3.180270 0.640682 0.000000 0.000000 0.000000 17.142862 28.682908 -3.852521 -17.744723 -23.999470 -5.141766 -12.317890 43.235065 6.073696 10.285457 -44.665943 2.529958 0.000000 0.000000 0.000000 0.000000 0.000000 0.000000 5.853120 -2.542202 -1.657593 -12.819140 -0.991890 -0.127524 7.578757 9.645461 2.586787 -11.156443 0.316359 -1.417203 0.000000 0.000000 0.000000 0.000000 0.000000 0.000000 1.026639 0.033322 -25.947574 -1.001950 5.986057 -0.570417 24.675738 -42.771727 21.169735 0.000000 0.000000 0.000000 2.059371 2.036131 -26.763657 -2.028747 1.528729 0.315120 -63.173247 -1.062552 -22.728973 0.000000 0.000000 0.000000
42.656507 65.153169 240.724879 0.576130 -2.621320 25.761181 0.112745 -0.683255 -25.734476 0.185230 -0.270160 0.028796 1.514897 -5.077254 0.735470 0.000000 0.000000 0.000000 18.425161 30.439129 -4.932358 -18.485751 -25.740316 -5.140012 -11.180676 39.862925 4.638405 10.070880 -42.736741 2.946598 0.000000 0.000000 0.000000 0.000000 0.000000 0.000000 7.735919 -3.572438 -1.910681 -13.624323 -3.002733 -0.111914 9.490288 12.981900 3.705441 -12.428064 0.249427 -2.865143 0.000000 0.000000 0.000000 0.000000 0.000000 0.000000 1.632325 -1.015260 -25.241559 -2.124340 7.125405 -0.748296 47.164650 -54.515369 42.142724 0.000000 0.000000 0.000000 2.810447 0.992380 -26.356080 -3.172833 2.596011 0.442887 -68.738682 -9.096819 -30.524228 0.000000 0.000000 0.000000
42.177996 65.163373 240.103545 0.229522 -2.882072 24.948706 0.095125 -0.513125 -24.945247 0.150910 -0.276046 0.007348 3.213635 -6.972241 0.812378 0.000000 0.000000 0.000000 19.162159 31.171830 -5.501849 -18.411635 -26.576183 -4.848823 -12.691778 44.067831 6.527402 10.415469 -46.735767 2.588323 0.000000 0.000000 0.000000 0.000000 0.000000 0.000000 9.358925 -4.769189 -2.113207 -13.527428 -4.402891 0.101437 11.308581 13.494775 4.943501 -13.955016 2.796983 -4.209861 0.000000 0.000000 0.000000 0.000000 0.000000 0.000000 2.512917 -2.472261 -24.199910 -3.449363 8.216698 -0.908086 68.856817 -58.486676 62.800651 0.000000 0.000000 0.000000 3.849782 -0.122395 -25.688936 -4.313368 3.023194 0.645079 -73.699551 -15.804847 -37.480384 0.000000 0.000000 0.000000
41.630259 65.200057 239.368960 -0.296785 -2.988712 24.073270 0.092898 -0.416934 -24.103240 0.134796 -0.312106 -0.018472 5.055344 -8.789264 0.896361 0.000000 0.000000 0.000000 20.052125 31.559898 -5.634120 -18.740943 -26.896817 -5.015683 -13.976372 47.231979 8.096540 10.719307 -48.791606 2.300056 0.000000 0.000000 0.000000 0.000000 0.000000 0.000000 11.077401 -6.049416 -2.279779 -13.707387 -5.224792 0.411638 13.812019 12.631469 6.331598 -15.242773 3.470104 -5.793974 0.000000 0.000000 0.000000 0.000000 0.000000 0.000000 3.544638 -4.253950 -23.055406 -4.801568 9.219511 -1.036561 80.741535 -58.788078 74.000622 0.000000 0.000000 0.000000 5.127921 -1.311763 -24.977476 -5.445473 3.141572 0.890523 -69.096537 -22.290571 -38.058187 0.000000 0.000000 0.000000
41.091647 65.274076 238.620769 -0.916392 -3.020183 23.226733 0.046562 -0.402976 -23.296266 0.101635 -0.345184 -0.049812 7.096463 -10.175369 0.893635 0.000000 0.000000 0.000000 20.781087 31.767304 -5.774948 -18.885994 -26.977430 -5.020321 -16.354360 51.814805 10.354512 11.541081 -47.782243 2.075300 0.000000 0.000000 0.000000 0.000000 0.000000 0.000000 12.757511 -7.275628 -2.412580 -13.130303 -5.454774 0.912955 14.397964 9.532268 7.598664 -15.623374 4.139313 -6.598561 0.000000 0.000000 0.000000 0.000000 0.000000 0.000000 4.657830 -5.979394 -21.941901 -6.170124 9.961934 -1.102054 82.121050 -58.784180 74.882181 0.000000 0.000000 0.000000 6.511810 -2.253345 -24.298707 -6.004263 2.403991 1.124804 -61.907099 -31.495767 -37.352886 0.000000 0.000000 0.000000
